<svg xmlns="http://www.w3.org/2000/svg" width="75" height="65" viewBox="0 0 75 65">
  <style>
		.eye, .bubble {
			fill: #fff;
		}
		.eyeball {
			fill: #00f;
		}
		.tailfin, .sidefin {
			fill: #baba23;
		}
		.fishbody {
			fill: #8f8f22;
		}
		.lips {
 			fill: #d1d138;
		}
	</style>
  <path
    d="M 1.2945958,26.112186 C 4.5377702,28.849998 8.2988825,33.129399 8.7070214,37.695068 9.130568,42.433094 6.8878054,46.758616 3.2687325,50.888991 7.0055376,50.673575 13.75062,45.704054 16.869964,44.235622 16.779712,39.225626 15.792436,38.089111 17.667257,33.364796 14.007894,30.288186 8.0604145,25.950025 1.2945958,26.112186 Z"
    class="tailfin"
  />
  <path
    d="m 69.347,48.094 c 1.25,0.709 2.667768,1.87631 2.556,3.25 -0.101526,1.247816 -1.412492,2.086037 -2.768492,2.538037 -0.378,1.505 -0.926216,2.533114 -2.052843,2.815612 C 65.845836,57.00753 63.961,55.787 63.639,55.037 c 2.249,-2.161 5.11,-3.569 5.708,-6.943 z" class="fishbody"
  />
  <path
    d="M 41.986328,3.625 37.781956,14.545419 31.888672,5.5371094 31.72249,18.403922 l -6.921709,-6.243766 1.733173,9.79596 c -7.815265,3.645645 -11.579722,9.200933 -11.780048,16.764587 -0.3072,11.598875 11.38208,21.664063 27.244141,21.664063 7.978,0 16.961968,-0.198854 23.007812,-5.228516 C 69.499369,51.418007 72.108686,44.981342 71.9375,39.050781 71.754291,32.703714 67.034975,25.746094 59.353516,21.585938 L 61.201172,14.195312 54.015625,19.015625 53.179688,4.59375 45.265625,15.490234 Z"
    class="lips"
  />
  <path
    d="m 51.403,55.451381 c 0.418413,2.550708 -0.820752,5.46646 -2.658,7.284619 -1.611114,1.594374 -4.145347,2.263945 -6.412,2.264 -2.266967,5.5e-5 -4.789504,-0.681786 -6.413,-2.264 -1.775666,-1.730515 -3.021168,-4.495588 -2.656,-6.948 0.72545,-4.872019 4.612626,-9.977211 9.069,-11.667 4.638952,1.66402 8.286877,6.556343 9.07,11.330381 z"
    class="sidefin"
  />
  <circle r="7" cx="61.718002" cy="42.347" class="eye" />
  <circle r="1.8876016" cx="64.977409" cy="41.246605" class="eyeball" />
</svg>